<svg xmlns="http://www.w3.org/2000/svg" xmlns:xlink="http://www.w3.org/1999/xlink" width="710" height="369" viewBox="0 0 710 369">
  <defs>
    <linearGradient id="linear-gradient" x2="1" y2="1" gradientUnits="objectBoundingBox">
      <stop offset="0" stop-color="#ffed9e"/>
      <stop offset="1" stop-color="#fa742b"/>
    </linearGradient>
    <linearGradient id="linear-gradient-2" x2="1" y2="1" gradientUnits="objectBoundingBox">
      <stop offset="0" stop-color="#ffdf9e"/>
      <stop offset="1" stop-color="#fa742b"/>
    </linearGradient>
    <clipPath id="clip-path">
      <rect id="Rectangle_162" data-name="Rectangle 162" width="710" height="369" rx="20" transform="translate(0.203 -0.264)" fill="url(#linear-gradient)"/>
    </clipPath>
  </defs>
  <g id="Live_interactive_Classes_Background" data-name="Live interactive Classes Background" transform="translate(-448.203 -248.736)">
    <rect id="Rectangle_160" data-name="Rectangle 160" width="710" height="369" rx="20" transform="translate(448.203 248.736)" fill="url(#linear-gradient-2)"/>
    <g id="Mask_Group_7" data-name="Mask Group 7" transform="translate(448 249)" clip-path="url(#clip-path)">
      <g id="Group_206" data-name="Group 206" transform="translate(-181.282 -426.831)">
        <g id="Path_46" data-name="Path 46" transform="translate(291.598 259.865)" fill="rgba(255,255,255,0)">
          <path d="M 2.097540378570557 587.5786743164062 C -21.91890335083008 587.5786743164062 -41.45779418945312 584.9295654296875 -57.63579177856445 579.4800415039062 C -61.83212661743164 578.0664672851562 -65.86712646484375 576.43603515625 -69.62868499755859 574.634033203125 C -73.43468475341797 572.8107299804688 -77.08190155029297 570.7537231445312 -80.46901702880859 568.52001953125 C -83.89045715332031 566.263916015625 -87.15467834472656 563.7562866210938 -90.17112731933594 561.0667114257812 C -93.21390533447266 558.3538208007812 -96.10012817382812 555.37060546875 -98.74990081787109 552.1998291015625 C -103.5151290893555 546.4976196289062 -107.736572265625 539.9194946289062 -111.2967910766602 532.6483764648438 C -114.8892364501953 525.3115844726562 -117.9423522949219 516.996337890625 -120.3712387084961 507.93359375 C -122.8112411499023 498.8299255371094 -124.7110137939453 488.6376037597656 -126.0180130004883 477.6395874023438 C -127.3250122070312 466.6418151855469 -128.0870208740234 454.43603515625 -128.2828979492188 441.3612670898438 C -128.4779052734375 428.3453674316406 -128.118896484375 413.9909362792969 -127.2159042358398 398.6966857910156 C -126.3211288452148 383.541259765625 -124.8591232299805 366.9029235839844 -122.8703460693359 349.2439270019531 C -118.9512405395508 314.4438171386719 -112.9629058837891 274.9022521972656 -104.5632400512695 228.3598175048828 C -99.19257354736328 198.6012573242188 -93.51946258544922 170.7780303955078 -87.70146179199219 145.6629180908203 C -82.03456878662109 121.2000350952148 -76.05612945556641 98.55536651611328 -69.93212890625 78.35770416259766 C -63.98534774780273 58.74436569213867 -57.71590423583984 40.82781219482422 -51.29812622070312 25.1057014465332 C -45.08934783935547 9.895812034606934 -38.54457092285156 -3.742632389068604 -31.845458984375 -15.431077003479 C -25.39557075500488 -26.68441009521484 -18.59279251098633 -36.49563217163086 -11.62579250335693 -44.59241104125977 C -8.250125885009766 -48.51552200317383 -4.757792949676514 -52.12774276733398 -1.245904088020325 -55.32874298095703 C 2.183651447296143 -58.45474243164062 5.733651638031006 -61.28118896484375 9.305317878723145 -63.72952270507812 C 12.78665161132812 -66.115966796875 16.39287376403809 -68.21452331542969 20.02376174926758 -69.96685791015625 C 23.55542945861816 -71.67140960693359 27.21743011474609 -73.10007476806641 30.90798568725586 -74.21307373046875 C 34.48920822143555 -75.29319000244141 38.20731735229492 -76.10918426513672 41.9590950012207 -76.63851928710938 C 45.58887481689453 -77.15052032470703 49.36365127563477 -77.41018676757812 53.17842864990234 -77.41018676757812 C 60.94198608398438 -77.41018676757812 68.97531890869141 -76.38362884521484 77.73754119873047 -74.27185821533203 C 85.57998657226562 -72.38174438476562 93.85009765625 -69.65396881103516 103.0204315185547 -65.93263244628906 C 120.1139831542969 -58.99607849121094 137.3121032714844 -49.85163116455078 155.5200958251953 -40.17018890380859 C 194.6153106689453 -19.38263320922852 235.0417633056641 2.112589836120605 276.7240905761719 2.112589836120605 C 295.2849731445312 2.112589836120605 313.833984375 3.982478618621826 331.8559875488281 7.67036771774292 C 349.4197692871094 11.26436805725098 366.6959838867188 16.62725639343262 383.2048645019531 23.60992240905762 C 399.4140930175781 30.46581268310547 415.048095703125 38.95170211791992 429.6723327636719 48.83158874511719 C 444.1577758789062 58.61781311035156 457.7793273925781 69.85659027099609 470.1584167480469 82.23570251464844 C 482.5375366210938 94.61492156982422 493.7763061523438 108.2363662719727 503.5625305175781 122.721923828125 C 513.4425659179688 137.3461456298828 521.9283447265625 152.9800415039062 528.7841796875 169.1893615722656 C 535.766845703125 185.6982574462891 541.1297607421875 202.9744720458984 544.723876953125 220.5382537841797 C 548.41162109375 238.5602569580078 550.2815551757812 257.1092529296875 550.2815551757812 275.6701354980469 C 550.2815551757812 294.2310485839844 548.41162109375 312.780029296875 544.723876953125 330.8020324707031 C 541.1297607421875 348.3658142089844 535.766845703125 365.6420288085938 528.7841796875 382.1509094238281 C 521.9283447265625 398.3601379394531 513.4425659179688 413.994140625 503.5625305175781 428.6183776855469 C 493.7763061523438 443.1038208007812 482.5375366210938 456.7253723144531 470.1584167480469 469.1044921875 C 457.7793273925781 481.4835815429688 444.1577758789062 492.7223815917969 429.6723327636719 502.5085754394531 C 415.048095703125 512.3886108398438 399.4140930175781 520.8743896484375 383.2048645019531 527.7302856445312 C 366.6959838867188 534.7129516601562 349.4197692871094 540.0758056640625 331.8559875488281 543.669921875 C 313.833984375 547.3577270507812 295.2849731445312 549.2276000976562 276.7240905761719 549.2276000976562 C 246.2164306640625 549.2276000976562 208.7992095947266 556.970703125 169.1850891113281 565.16845703125 C 140.8430938720703 571.0335083007812 111.5360946655273 577.0982666015625 82.798095703125 580.7476806640625 L 82.79454040527344 580.7481689453125 L 82.79109954833984 580.7485961914062 C 66.86953735351562 583.0001220703125 52.8415412902832 584.642822265625 39.90542984008789 585.7703857421875 C 25.9452075958252 586.9871215820312 13.57809638977051 587.5786743164062 2.097540378570557 587.5786743164062 Z" stroke="none"/>
          <path d="M 53.17849731445312 -76.91018676757812 C 49.38693237304688 -76.91018676757812 45.63571166992188 -76.65219116210938 42.0289306640625 -76.143310546875 C 38.30227661132812 -75.61764526367188 34.6092529296875 -74.80706787109375 31.05227661132812 -73.73440551757812 C 27.38671875 -72.62884521484375 23.749267578125 -71.20974731445312 20.24105834960938 -69.51651000976562 C 16.6328125 -67.77508544921875 13.04861450195312 -65.68930053710938 9.588043212890625 -63.31707763671875 C 6.0352783203125 -60.88174438476562 2.50347900390625 -58.06973266601562 -0.9091796875 -54.95919799804688 C -4.40618896484375 -51.771728515625 -7.88427734375 -48.1741943359375 -11.24685668945312 -44.26629638671875 C -18.19317626953125 -36.19351196289062 -24.97763061523438 -26.40829467773438 -31.41162109375 -15.18240356445312 C -38.099853515625 -3.51318359375 -44.63485717773438 10.10525512695312 -50.83529663085938 25.29470825195312 C -57.24728393554688 41.00247192382812 -63.51141357421875 58.90426635742188 -69.4537353515625 78.5028076171875 C -75.57452392578125 98.6898193359375 -81.55007934570312 121.3236999511719 -87.21438598632812 145.7756958007812 C -93.03060913085938 170.8829193115234 -98.70196533203125 198.6981506347656 -104.0711669921875 228.4485931396484 C -112.4688415527344 274.9800415039062 -118.4556274414062 314.5108032226562 -122.3735046386719 349.2998046875 C -124.3612976074219 366.9501342773438 -125.822509765625 383.57958984375 -126.7167358398438 398.7261352539062 C -127.6190490722656 414.0081481933594 -127.9777526855469 428.3501586914062 -127.7829284667969 441.3536987304688 C -127.5873107910156 454.411376953125 -126.8265075683594 466.5997924804688 -125.5215148925781 477.5804748535156 C -124.21728515625 488.5548095703125 -122.3220520019531 498.7234802246094 -119.8882751464844 507.8040161132812 C -117.4676208496094 516.835693359375 -114.4259643554688 525.12060546875 -110.8477172851562 532.428466796875 C -107.3050537109375 539.6634521484375 -103.1057434082031 546.2077026367188 -98.36618041992188 551.879150390625 C -95.7320556640625 555.03125 -92.86285400390625 557.996826171875 -89.83840942382812 560.6934814453125 C -86.83984375 563.366943359375 -83.59494018554688 565.8598022460938 -80.19363403320312 568.1027221679688 C -76.82540893554688 570.3237915039062 -73.19818115234375 572.3695068359375 -69.41262817382812 574.1830444335938 C -65.66928100585938 575.9763793945312 -61.65316772460938 577.59912109375 -57.47607421875 579.0061645507812 C -41.35028076171875 584.4381103515625 -21.86361694335938 587.0787353515625 2.09759521484375 587.0787353515625 C 13.5634765625 587.0787353515625 25.9163818359375 586.48779296875 39.86215209960938 585.272216796875 C 52.78927612304688 584.1455078125 66.80850219726562 582.5037841796875 82.72116088867188 580.2536010742188 L 82.73516845703125 580.251708984375 C 111.4537048339844 576.604736328125 140.7508239746094 570.5420532226562 169.0833740234375 564.6788330078125 C 208.7233734130859 556.475830078125 246.1651611328125 548.7276000976562 276.7240600585938 548.7276000976562 C 295.2512817382812 548.7276000976562 313.7666015625 546.8611450195312 331.7557067871094 543.1800537109375 C 349.2871704101562 539.5925903320312 366.5316162109375 534.2396240234375 383.0100402832031 527.269775390625 C 399.1896057128906 520.4263916015625 414.794921875 511.9561462402344 429.3923950195312 502.09423828125 C 443.8515014648438 492.325927734375 457.4482727050781 481.1076049804688 469.804931640625 468.7509155273438 C 482.1615905761719 456.3942565917969 493.3798217773438 442.797607421875 503.1482543945312 428.3384704589844 C 513.0101318359375 413.7409057617188 521.4803466796875 398.1357116699219 528.3238525390625 381.9561462402344 C 535.2935791015625 365.4776916503906 540.6466064453125 348.2332458496094 544.2340087890625 330.7018127441406 C 547.9151611328125 312.7127075195312 549.7816162109375 294.1973571777344 549.7816162109375 275.6701354980469 C 549.7816162109375 257.1429138183594 547.9151611328125 238.6275939941406 544.2340087890625 220.6384887695312 C 540.6466064453125 203.1070251464844 535.2935791015625 185.8625946044922 528.3238525390625 169.3841400146484 C 521.4803466796875 153.20458984375 513.0101318359375 137.5992584228516 503.1482543945312 123.0018157958984 C 493.3798217773438 108.5426940917969 482.1615905761719 94.9459228515625 469.804931640625 82.58926391601562 C 457.4482727050781 70.23258972167969 443.8515014648438 59.01437377929688 429.3923950195312 49.24591064453125 C 414.794921875 39.384033203125 399.1896057128906 30.913818359375 383.0100402832031 24.07037353515625 C 366.5316162109375 17.1005859375 349.2871704101562 11.74758911132812 331.7557067871094 8.16015625 C 313.7666015625 4.479034423828125 295.2512817382812 2.612579345703125 276.7240600585938 2.612579345703125 C 234.9170532226562 2.612579345703125 194.4347076416016 -18.91241455078125 155.2852630615234 -39.72872924804688 C 137.0891571044922 -49.40386962890625 119.9020385742188 -58.54241943359375 102.8323669433594 -65.46929931640625 C 93.68527221679688 -69.18118286132812 85.43838500976562 -71.90151977539062 77.62039184570312 -73.78573608398438 C 68.89703369140625 -75.88818359375 60.90203857421875 -76.91018676757812 53.17849731445312 -76.91018676757812 M 53.178466796875 -77.91021728515625 C 120.8307189941406 -77.91021728515625 196.9065246582031 1.612579345703125 276.7240600585938 1.612579345703125 C 428.0818176269531 1.612579345703125 550.7816162109375 124.3123626708984 550.7816162109375 275.6701354980469 C 550.7816162109375 427.0279235839844 428.0818176269531 549.7276000976562 276.7240600585938 549.7276000976562 C 224.5057067871094 549.7276000976562 151.8651580810547 572.48095703125 82.86114501953125 581.2437133789062 C 52.5531005859375 585.5296630859375 25.657958984375 588.0787353515625 2.097625732421875 588.0787353515625 C -126.6152648925781 588.0787353515625 -156.2763977050781 512.0866088867188 -105.0552978515625 228.2710266113281 C -61.32769775390625 -14.02255249023438 -7.4580078125 -77.91021728515625 53.178466796875 -77.91021728515625 Z" stroke="none" fill="#fff"/>
        </g>
        <g id="Path_47" data-name="Path 47" transform="matrix(0.883, 0.469, -0.469, 0.883, 348.167, 0)" fill="rgba(255,255,255,0)">
          <path d="M 174.6211395263672 741.1148071289062 C 161.3885650634766 741.1148071289062 148.8809967041016 740.2714233398438 137.4458465576172 738.6079711914062 C 125.1171340942383 736.8145751953125 113.5428466796875 733.9984130859375 103.0444183349609 730.2376708984375 C 97.53256225585938 728.2632446289062 92.18341827392578 725.9815673828125 87.14570617675781 723.4559936523438 C 81.96041870117188 720.8565673828125 76.94941711425781 717.9208374023438 72.25213623046875 714.7305297851562 C 67.42627716064453 711.4528198242188 62.78770446777344 707.8089599609375 58.4655647277832 703.900146484375 C 54.03199005126953 699.8905639648438 49.80027770996094 695.4837036132812 45.8877067565918 690.8018188476562 C 40.27813339233398 684.089111328125 35.12484741210938 676.571533203125 30.57113456726074 668.4579467773438 C 25.87299156188965 660.0868530273438 21.67227745056152 650.83056640625 18.08570671081543 640.9464111328125 C 14.39327716827393 630.7701416015625 11.24227714538574 619.6265258789062 8.720419883728027 607.8252563476562 C 6.128991603851318 595.6985473632812 4.125420093536377 582.520263671875 2.765420198440552 568.6568603515625 C 1.370277285575867 554.4351196289062 0.611562967300415 539.0759887695312 0.510277271270752 523.006103515625 C 0.4065629839897156 506.5452575683594 0.9897058606147766 488.859130859375 2.243420124053955 470.43896484375 C 3.525991678237915 451.5951232910156 5.547563076019287 431.4359741210938 8.251991271972656 410.5215454101562 C 11.01541996002197 389.1506958007812 14.57184886932373 366.3726806640625 18.82242012023926 342.8201293945312 C 24.83441925048828 309.5082702636719 31.18484878540039 278.362548828125 37.69756317138672 250.2483978271484 C 44.04127883911133 222.8641204833984 50.73370742797852 197.5148315429688 57.58913421630859 174.9048309326172 C 64.24642181396484 152.9485473632812 71.26484680175781 132.8914031982422 78.44941711425781 115.2906875610352 C 85.40027618408203 98.26283264160156 92.72756195068359 82.99383544921875 100.2277069091797 69.9078369140625 C 103.8775634765625 63.53983306884766 107.6511306762695 57.54326248168945 111.4437026977539 52.08469009399414 C 115.1602783203125 46.73554611206055 119.0038452148438 41.74654769897461 122.867561340332 37.25611877441406 C 126.6478500366211 32.86283493041992 130.5587005615234 28.81768989562988 134.4915618896484 25.23297691345215 C 138.3327026367188 21.73197555541992 142.3085632324219 18.56640434265137 146.3088531494141 15.82426261901855 C 150.2082824707031 13.15140533447266 154.24755859375 10.8008337020874 158.3145599365234 8.837833404541016 C 162.2705688476562 6.928547859191895 166.3727111816406 5.328119277954102 170.5066986083984 4.081405162811279 C 174.5184173583984 2.871547937393188 178.6834259033203 1.957405090332031 182.885986328125 1.364547967910767 C 186.9518432617188 0.7909764647483826 191.1799926757812 0.5001193284988403 195.4529876708984 0.5001193284988403 C 199.8507080078125 0.5001193284988403 204.4425659179688 0.8082622289657593 209.1011352539062 1.416262149810791 C 213.5518493652344 1.997119307518005 218.2139892578125 2.871405124664307 222.9578552246094 4.01469087600708 C 231.7392730712891 6.131119251251221 240.9994201660156 9.185404777526855 251.2672729492188 13.35211944580078 C 270.4042663574219 21.11797714233398 289.6567077636719 31.35469055175781 310.03955078125 42.19254684448242 C 353.79541015625 65.45812225341797 399.0409851074219 89.51583099365234 445.6842651367188 89.51583099365234 C 466.46484375 89.51583099365234 487.2321472167969 91.60940551757812 507.409423828125 95.73826599121094 C 527.07373046875 99.76212310791016 546.416015625 105.7662658691406 564.8992919921875 113.5841217041016 C 583.047119140625 121.2599792480469 600.5507202148438 130.7605438232422 616.923828125 141.8221130371094 C 633.1417236328125 152.7786865234375 648.3921508789062 165.3614044189453 662.2518310546875 179.2209777832031 C 676.1114501953125 193.0806884765625 688.6941528320312 208.3311157226562 699.6506958007812 224.5489807128906 C 710.7122802734375 240.922119140625 720.2128295898438 258.4256896972656 727.8887329101562 276.5735473632812 C 735.70654296875 295.0568237304688 741.710693359375 314.3991088867188 745.7345581054688 334.0634155273438 C 749.8634033203125 354.2406921386719 751.9569702148438 375.0079650878906 751.9569702148438 395.7885437011719 C 751.9569702148438 416.5691223144531 749.8634033203125 437.3363952636719 745.7345581054688 457.5137023925781 C 741.710693359375 477.177978515625 735.70654296875 496.5204162597656 727.8887329101562 515.003662109375 C 720.2128295898438 533.1514282226562 710.7122802734375 550.6550903320312 699.6506958007812 567.0282592773438 C 688.6941528320312 583.24609375 676.1114501953125 598.4965209960938 662.2518310546875 612.3561401367188 C 648.3921508789062 626.2158203125 633.1417236328125 638.7985229492188 616.923828125 649.755126953125 C 600.5507202148438 660.8167114257812 583.047119140625 670.3172607421875 564.8992919921875 677.9931030273438 C 546.416015625 685.8109741210938 527.07373046875 691.8151245117188 507.409423828125 695.8389892578125 C 487.2321472167969 699.9678344726562 466.46484375 702.0614013671875 445.6842651367188 702.0614013671875 C 411.5388488769531 702.0614013671875 369.656982421875 710.72900390625 325.3161315917969 719.905517578125 C 300.4932861328125 725.0428466796875 274.8252868652344 730.35498046875 249.3881378173828 734.3712768554688 C 235.6534271240234 736.5398559570312 223.260986328125 738.1353759765625 211.5027008056641 739.2489624023438 C 198.2462768554688 740.5045776367188 186.1822814941406 741.1148071289062 174.6211395263672 741.1148071289062 Z" stroke="none"/>
          <path d="M 195.4530029296875 1.00006103515625 C 191.2032775878906 1.00006103515625 186.9987182617188 1.2891845703125 182.9558410644531 1.859619140625 C 178.7782897949219 2.44891357421875 174.638427734375 3.35748291015625 170.651123046875 4.56005859375 C 166.5419921875 5.79931640625 162.4644165039062 7.39007568359375 158.5318603515625 9.2882080078125 C 154.487548828125 11.24017333984375 150.4701538085938 13.57794189453125 146.591552734375 16.23675537109375 C 142.610107421875 18.9659423828125 138.6524047851562 22.1170654296875 134.8284301757812 25.60247802734375 C 130.910400390625 29.17364501953125 127.0137329101562 33.2042236328125 123.24658203125 37.58233642578125 C 119.3939819335938 42.05963134765625 115.5611572265625 47.034912109375 111.854248046875 52.36993408203125 C 108.0700073242188 57.8167724609375 104.3041381835938 63.80108642578125 100.6615600585938 70.156494140625 C 93.17242431640625 83.22332763671875 85.8548583984375 98.47222900390625 78.91241455078125 115.4796142578125 C 71.73358154296875 133.0660400390625 64.72027587890625 153.1083374023438 58.06756591796875 175.0499267578125 C 51.21539306640625 197.6493530273438 44.52587890625 222.9876403808594 38.1846923828125 250.3612060546875 C 31.673828125 278.4674987792969 25.32501220703125 309.6049194335938 19.3145751953125 342.9087829589844 C 15.0654296875 366.4531860351562 11.51025390625 389.2230529785156 8.74786376953125 410.5856323242188 C 6.044677734375 431.4900512695312 4.02410888671875 451.6390380859375 2.74224853515625 470.472900390625 C 1.48944091796875 488.8807678222656 0.90667724609375 506.5545043945312 1.01025390625 523.0029296875 C 1.1114501953125 539.0576171875 1.86944580078125 554.4013671875 3.26300048828125 568.6080322265625 C 4.62115478515625 582.4529418945312 6.621826171875 595.6123657226562 9.20941162109375 607.7207641601562 C 11.7265625 619.499755859375 14.87115478515625 630.6210327148438 18.55584716796875 640.7759399414062 C 22.13299560546875 650.6344604492188 26.322265625 659.8657836914062 31.00714111328125 668.2133178710938 C 35.54583740234375 676.300048828125 40.681396484375 683.7921752929688 46.27142333984375 690.4813232421875 C 50.16900634765625 695.1452026367188 54.38458251953125 699.5352172851562 58.80096435546875 703.5291748046875 C 63.10601806640625 707.4227905273438 67.72613525390625 711.0521850585938 72.53302001953125 714.31689453125 C 77.2122802734375 717.4949340820312 82.2039794921875 720.4193725585938 87.36968994140625 723.0089111328125 C 92.38958740234375 725.5255126953125 97.72015380859375 727.7991943359375 103.213134765625 729.7669067382812 C 113.6801147460938 733.5164794921875 125.2219848632812 736.3246459960938 137.517822265625 738.1132202148438 C 148.9292602539062 739.7730712890625 161.4125671386719 740.61474609375 174.6210021972656 740.61474609375 C 186.1662902832031 740.61474609375 198.2149963378906 740.0051879882812 211.4554138183594 738.751220703125 C 223.2032775878906 737.6386108398438 235.585693359375 736.0443725585938 249.3101196289062 733.8773193359375 C 274.7354125976562 729.8629150390625 300.3975524902344 724.5519409179688 325.2146911621094 719.4158935546875 C 369.5814208984375 710.2340698242188 411.487548828125 701.5613403320312 445.6841430664062 701.5613403320312 C 466.43115234375 701.5613403320312 487.1647033691406 699.47119140625 507.3091430664062 695.3490600585938 C 526.9409790039062 691.3319091796875 546.2515869140625 685.3374633789062 564.7044067382812 677.5326538085938 C 582.8225708007812 669.8693237304688 600.2975463867188 660.3842163085938 616.6439819335938 649.3407592773438 C 632.83544921875 638.4020385742188 648.0611572265625 625.839599609375 661.8982543945312 612.0026245117188 C 675.7352905273438 598.1654663085938 688.2977294921875 582.9397583007812 699.2364501953125 566.7483520507812 C 710.2798461914062 550.4019165039062 719.7650146484375 532.9268798828125 727.4282836914062 514.8088989257812 C 735.233154296875 496.3560791015625 741.2274169921875 477.0454711914062 745.2446899414062 457.4134826660156 C 749.3668212890625 437.2691955566406 751.4569702148438 416.53564453125 751.4569702148438 395.7886352539062 C 751.4569702148438 375.0416259765625 749.3668212890625 354.3080444335938 745.2446899414062 334.1636352539062 C 741.2274169921875 314.5317687988281 735.233154296875 295.22119140625 727.4282836914062 276.7683410644531 C 719.7650146484375 258.6502075195312 710.2798461914062 241.1752014160156 699.2364501953125 224.8287658691406 C 688.2977294921875 208.6373291015625 675.7352905273438 193.41162109375 661.8982543945312 179.5744934082031 C 648.0611572265625 165.7374877929688 632.83544921875 153.175048828125 616.6439819335938 142.236328125 C 600.2975463867188 131.1929321289062 582.8225708007812 121.707763671875 564.7044067382812 114.0444946289062 C 546.2515869140625 106.2396240234375 526.9409790039062 100.245361328125 507.3091430664062 96.22808837890625 C 487.1647033691406 92.10589599609375 466.43115234375 90.0157470703125 445.6841430664062 90.0157470703125 C 398.9161376953125 90.0157470703125 353.6147155761719 65.9283447265625 309.8047180175781 42.634033203125 C 289.4335632324219 31.8023681640625 270.1922912597656 21.57147216796875 251.0791320800781 13.81536865234375 C 240.8345642089844 9.658203125 231.5977172851562 6.611328125 222.840576171875 4.50079345703125 C 218.1139831542969 3.36163330078125 213.4695739746094 2.4906005859375 209.0364074707031 1.91204833984375 C 204.3992919921875 1.30694580078125 199.8291320800781 1.00006103515625 195.4530029296875 1.00006103515625 M 195.4530334472656 0 C 271.1811828613281 0 356.3384704589844 89.0157470703125 445.6841430664062 89.0157470703125 C 615.110107421875 89.0157470703125 752.4569702148438 226.3626403808594 752.4569702148438 395.7886352539062 C 752.4569702148438 565.2144775390625 615.110107421875 702.5613403320312 445.6841430664062 702.5613403320312 C 373.3079528808594 702.5613403320312 265.8692016601562 741.61474609375 174.6210327148438 741.61474609375 C 52.265869140625 741.61474609375 -40.98931884765625 671.4207763671875 18.3304443359375 342.731201171875 C 67.27789306640625 71.51416015625 127.578125 0 195.4530334472656 0 Z" stroke="none" fill="#fff"/>
        </g>
        <g id="Path_48" data-name="Path 48" transform="matrix(0.883, 0.469, -0.469, 0.883, 409.848, 43.034)" fill="rgba(255,255,255,0)">
          <path d="M 146.5588836669922 740.781982421875 C 135.7886047363281 740.781982421875 125.5983123779297 740.0682983398438 116.2711715698242 738.6605834960938 C 106.2780303955078 737.1524047851562 96.87645721435547 734.7890014648438 88.32774353027344 731.6358642578125 C 79.27217102050781 728.2957153320312 70.84445953369141 723.9492797851562 63.27874374389648 718.7171630859375 C 59.34617233276367 715.99755859375 55.55388641357422 712.9755859375 52.00703048706055 709.7349853515625 C 48.37588500976562 706.4174194335938 44.89445877075195 702.7723999023438 41.65945816040039 698.9013061523438 C 36.35731506347656 692.5565795898438 31.50974273681641 685.3555908203125 27.25174331665039 677.4984130859375 C 22.85231399536133 669.3804321289062 18.94731521606445 660.3135375976562 15.64531421661377 650.5498657226562 C 12.24245738983154 640.4879760742188 9.377171516418457 629.382568359375 7.128886222839355 617.5416870117188 C 4.817314624786377 605.3672485351562 3.089028835296631 592.0518188476562 1.992028832435608 577.9653930664062 C 0.8664574027061462 563.5104370117188 0.3720288574695587 547.8150024414062 0.5227431058883667 531.3150024414062 C 0.6771717071533203 514.4119873046875 1.513028860092163 496.1665649414062 3.007028818130493 477.0854187011719 C 4.535457611083984 457.5668640136719 6.797314643859863 436.6015625 9.730029106140137 414.7716979980469 C 12.72617149353027 392.4696960449219 16.50974273681641 368.6142883300781 20.97574234008789 343.8679809570312 C 44.37217330932617 214.2292785644531 68.91860198974609 124.6542739868164 96.01788330078125 70.02456665039062 C 102.2931747436523 57.37399291992188 108.842887878418 46.36027908325195 115.4850311279297 37.28913497924805 C 118.7107467651367 32.88399124145508 122.0348892211914 28.8307056427002 125.3653182983398 25.24199104309082 C 128.6211700439453 21.73384857177734 131.9810333251953 18.56399154663086 135.3515930175781 15.82056331634521 C 138.6393127441406 13.1447057723999 142.0373077392578 10.79299163818359 145.4513092041016 8.830705642700195 C 148.7734527587891 6.921277523040771 152.2134552001953 5.32170581817627 155.6757507324219 4.076420307159424 C 159.0363159179688 2.867848873138428 162.5237426757812 1.954848885536194 166.0411682128906 1.362991690635681 C 169.4448852539062 0.7904202938079834 172.9860229492188 0.4999916851520538 176.5666046142578 0.4999916851520538 C 183.4793090820312 0.4999916851520538 190.6351776123047 1.533848881721497 198.4430236816406 3.660563230514526 C 205.458740234375 5.571420192718506 212.8798828125 8.337991714477539 221.1305999755859 12.11827754974365 C 236.5513153076172 19.18370628356934 252.4035949707031 28.66170692443848 269.1867370605469 38.69613265991211 C 289.1046142578125 50.6049919128418 309.7007446289062 62.91913604736328 331.5343017578125 72.35570526123047 C 343.3563232421875 77.46527862548828 354.3565979003906 81.22885131835938 365.1638793945312 83.86170959472656 C 371.04931640625 85.29556274414062 376.9327392578125 86.39370727539062 382.6507568359375 87.12570953369141 C 388.6727294921875 87.89656066894531 394.7135925292969 88.28742218017578 400.6055908203125 88.28742218017578 C 421.3861694335938 88.28742218017578 442.1534423828125 90.38098907470703 462.3307495117188 94.50984954833984 C 481.9950256347656 98.53370666503906 501.3373107910156 104.5378494262695 519.8206176757812 112.3557052612305 C 537.9684448242188 120.0315628051758 555.4720458984375 129.5321350097656 571.8451538085938 140.5937042236328 C 588.0630493164062 151.5502777099609 603.3134765625 164.1329956054688 617.1731567382812 177.9925689697266 C 631.03271484375 191.8522796630859 643.615478515625 207.1027069091797 654.572021484375 223.320556640625 C 665.6336059570312 239.6937103271484 675.1341552734375 257.197265625 682.81005859375 275.3451232910156 C 690.6278686523438 293.8284301757812 696.6320190429688 313.1707153320312 700.6558837890625 332.8349914550781 C 704.7847290039062 353.0122680664062 706.8782958984375 373.7795715332031 706.8782958984375 394.5601196289062 C 706.8782958984375 415.3406982421875 704.7847290039062 436.1080017089844 700.6558837890625 456.2852783203125 C 696.6320190429688 475.9495544433594 690.6278686523438 495.2919921875 682.81005859375 513.7752685546875 C 675.1341552734375 531.9229736328125 665.6336059570312 549.4266967773438 654.572021484375 565.7998657226562 C 643.615478515625 582.0177001953125 631.03271484375 597.2681274414062 617.1731567382812 611.127685546875 C 603.3134765625 624.9874267578125 588.0630493164062 637.5701293945312 571.8451538085938 648.5267333984375 C 555.4720458984375 659.5882568359375 537.9684448242188 669.0888671875 519.8206176757812 676.7647094726562 C 501.3373107910156 684.5825805664062 481.9950256347656 690.5867309570312 462.3307495117188 694.6105346679688 C 442.1534423828125 698.7394409179688 421.3861694335938 700.8330078125 400.6055908203125 700.8330078125 C 392.0813293457031 700.8330078125 383.0270385742188 701.3651123046875 372.9254455566406 702.459716796875 C 363.9101867675781 703.4367065429688 354.2451782226562 704.8445434570312 343.3778991699219 706.7639770507812 C 323.1670227050781 710.3335571289062 302.4815979003906 715.0104370117188 280.5816040039062 719.9619750976562 C 235.3100280761719 730.1976928710938 188.4971771240234 740.781982421875 146.5588836669922 740.781982421875 Z" stroke="none"/>
          <path d="M 176.5665893554688 1 C 173.0138854980469 1 169.5004577636719 1.2879638671875 166.1241760253906 1.85614013671875 C 162.6360168457031 2.4429931640625 159.1776123046875 3.3482666015625 155.8450317382812 4.5469970703125 C 152.4103088378906 5.78228759765625 148.9971618652344 7.36944580078125 145.7004699707031 9.26416015625 C 142.3097534179688 11.2130126953125 138.9340209960938 13.5494384765625 135.6673278808594 16.208251953125 C 132.3146057128906 18.9371337890625 128.9718933105469 22.09100341796875 125.7318725585938 25.5821533203125 C 122.4144592285156 29.15667724609375 119.1027526855469 33.19482421875 115.8884582519531 37.58453369140625 C 109.26318359375 46.6326904296875 102.7284545898438 57.621826171875 96.46575927734375 70.2467041015625 C 69.38775634765625 124.8336791992188 44.855712890625 214.364990234375 21.4678955078125 343.9566955566406 C 17.003173828125 368.6957092285156 13.2205810546875 392.543701171875 10.2255859375 414.8382873535156 C 7.294189453125 436.6589965820312 5.03314208984375 457.6151123046875 3.505615234375 477.1245727539062 C 2.0123291015625 496.1941528320312 1.177001953125 514.427978515625 1.02276611328125 531.319580078125 C 0.8721923828125 547.8051147460938 1.36602783203125 563.4859619140625 2.4906005859375 577.9265747070312 C 3.586181640625 591.994873046875 5.31201171875 605.2918701171875 7.62017822265625 617.4484252929688 C 9.864013671875 629.2665405273438 12.72344970703125 640.3497314453125 16.118896484375 650.3897094726562 C 19.411865234375 660.1265869140625 23.30548095703125 669.1669921875 27.6912841796875 677.2601318359375 C 31.93359375 685.088134765625 36.76214599609375 692.2612915039062 42.04302978515625 698.58056640625 C 45.26373291015625 702.4345703125 48.7296142578125 706.0632934570312 52.34429931640625 709.3658447265625 C 55.87445068359375 712.59130859375 59.6490478515625 715.59912109375 63.56304931640625 718.3059692382812 C 71.09429931640625 723.51416015625 79.484619140625 727.8411254882812 88.500732421875 731.1666870117188 C 97.01776123046875 734.30810546875 106.3861694335938 736.6631469726562 116.3457336425781 738.1661376953125 C 125.6483154296875 739.5701293945312 135.8135986328125 740.281982421875 146.5588989257812 740.281982421875 C 188.4413146972656 740.281982421875 235.2265930175781 729.7039794921875 280.4713134765625 719.4743041992188 C 302.3773193359375 714.5214233398438 323.0684509277344 709.84326171875 343.2908935546875 706.2715454101562 C 354.1691589355469 704.3502807617188 363.8451843261719 702.9408569335938 372.87158203125 701.9627075195312 C 382.9911499023438 700.8661499023438 392.0630493164062 700.3330078125 400.6055908203125 700.3330078125 C 421.3526000976562 700.3330078125 442.086181640625 698.2428588867188 462.23046875 694.1207275390625 C 481.8624572753906 690.1033935546875 501.1730346679688 684.109130859375 519.6258544921875 676.3042602539062 C 537.743896484375 668.6409912109375 555.2188720703125 659.1558227539062 571.5653076171875 648.1124267578125 C 587.7567138671875 637.1737060546875 602.9824829101562 624.6112670898438 616.819580078125 610.7742919921875 C 630.6566162109375 596.9371337890625 643.2190551757812 581.71142578125 654.15771484375 565.52001953125 C 665.201171875 549.173583984375 674.6863403320312 531.6985473632812 682.349609375 513.5804443359375 C 690.1544799804688 495.1275634765625 696.1488647460938 475.8169860839844 700.166015625 456.1851196289062 C 704.2881469726562 436.0407104492188 706.3782958984375 415.30712890625 706.3782958984375 394.5601196289062 C 706.3782958984375 373.8131408691406 704.2881469726562 353.0795593261719 700.166015625 332.9352722167969 C 696.1488647460938 313.3032836914062 690.1544799804688 293.9927062988281 682.349609375 275.5398559570312 C 674.6863403320312 257.4218444824219 665.201171875 239.9468383789062 654.15771484375 223.6004333496094 C 643.2190551757812 207.4089965820312 630.6566162109375 192.1832885742188 616.819580078125 178.3461303710938 C 602.9824829101562 164.5089721679688 587.7567138671875 151.946533203125 571.5653076171875 141.0078735351562 C 555.2188720703125 129.9644165039062 537.743896484375 120.479248046875 519.6258544921875 112.8159790039062 C 501.1730346679688 105.0111083984375 481.8624572753906 99.016845703125 462.23046875 94.99957275390625 C 442.086181640625 90.87744140625 421.3526000976562 88.78729248046875 400.6055908203125 88.78729248046875 C 394.6924438476562 88.78729248046875 388.6301879882812 88.39501953125 382.587158203125 87.62139892578125 C 376.8508911132812 86.88714599609375 370.9490356445312 85.78558349609375 365.0455932617188 84.347412109375 C 354.2106018066406 81.70782470703125 343.1841735839844 77.9354248046875 331.3360290527344 72.8145751953125 C 309.4723205566406 63.364990234375 288.8618774414062 51.04229736328125 268.93017578125 39.12530517578125 C 252.1591796875 29.09796142578125 236.3181762695312 19.6268310546875 220.9224548339844 12.5728759765625 C 212.6967468261719 8.80401611328125 205.3007507324219 6.04656982421875 198.3117370605469 4.142822265625 C 190.5471801757812 2.02801513671875 183.434326171875 1 176.5665893554688 1 M 176.5665893554688 -6.103515625e-05 C 239.7241516113281 -6.103515625e-05 311.5597534179688 87.78729248046875 400.6055908203125 87.78729248046875 C 570.0314331054688 87.78729248046875 707.3782958984375 225.13427734375 707.3782958984375 394.5601196289062 C 707.3782958984375 563.9861450195312 570.0314331054688 701.3330078125 400.6055908203125 701.3330078125 C 327.7950134277344 701.3330078125 228.2088317871094 741.281982421875 146.5588684082031 741.281982421875 C 38.21405029296875 741.281982421875 -38.57049560546875 670.99755859375 20.4837646484375 343.7791442871094 C 69.614501953125 71.54644775390625 119.5553894042969 -6.103515625e-05 176.5665893554688 -6.103515625e-05 Z" stroke="none" fill="#fff"/>
        </g>
      </g>
    </g>
  </g>
</svg>
